<svg width="800" height="800" viewBox="0 0 800 800" fill="none" xmlns="http://www.w3.org/2000/svg">
  <path d="M533.333 233.333L433.333 300V173.57C433.333 170.273 434.311 167.051 436.143 164.31C437.974 161.569 440.577 159.433 443.623 158.172C446.669 156.91 450.02 156.581 453.253 157.224C456.486 157.868 459.456 159.455 461.787 161.787L533.333 233.333Z" fill="#FF888B"/>
  <path d="M600 233.333L700 300V173.57C700 170.273 699.022 167.051 697.191 164.31C695.359 161.569 692.756 159.433 689.71 158.172C686.665 156.91 683.313 156.581 680.08 157.224C676.847 157.868 673.877 159.455 671.547 161.787L600 233.333Z" fill="#FF888B"/>
  <path d="M197.041 399.778L132.646 417.032L63.6273 159.452C61.3392 150.913 62.537 141.814 66.9573 134.158C71.3776 126.502 78.6582 120.915 87.1975 118.627C95.7368 116.339 104.835 117.537 112.491 121.957C120.148 126.378 125.734 133.658 128.022 142.198L197.041 399.778Z" fill="#4B5661"/>
  <path d="M110.296 769.719C97.4873 766.287 86.5664 757.907 79.936 746.422C73.3055 734.938 71.5088 721.29 74.9409 708.481L139.646 467L236.238 492.882L171.534 734.363C168.101 747.172 159.721 758.093 148.237 764.724C136.753 771.354 123.105 773.151 110.296 769.719Z" fill="#4B5661"/>
  <path d="M584.942 760.719C572.133 764.151 558.485 762.354 547.001 755.724C535.517 749.093 527.137 738.172 523.705 725.363L459 483.882L555.593 458L620.297 699.481C623.729 712.29 621.933 725.938 615.302 737.422C608.672 748.907 597.751 757.287 584.942 760.719Z" fill="#4B5661"/>
  <path d="M566.667 633.333C466.667 500 233.333 500 133.333 633.333V400C233.333 266.667 466.667 266.667 566.667 400V633.333Z" fill="#4B5661"/>
  <path d="M566.667 466.667C531.305 466.667 497.391 452.619 472.386 427.614C447.381 402.609 433.333 368.696 433.333 333.333V233.333H700V333.333C700 368.695 685.952 402.609 660.947 427.614C635.942 452.618 602.029 466.666 566.667 466.667Z" fill="#4B5661"/>
  <path d="M508.333 350C522.14 350 533.333 338.807 533.333 325C533.333 311.193 522.14 300 508.333 300C494.526 300 483.333 311.193 483.333 325C483.333 338.807 494.526 350 508.333 350Z" fill="white"/>
  <path d="M633.333 350C647.14 350 658.333 338.807 658.333 325C658.333 311.193 647.14 300 633.333 300C619.526 300 608.333 311.193 608.333 325C608.333 338.807 619.526 350 633.333 350Z" fill="white"/>
</svg>
