<svg width="800" height="800" viewBox="0 0 800 800" fill="none" xmlns="http://www.w3.org/2000/svg">
  <path d="M67.3125 353.875C66.1875 353.875 65 353.563 63.9375 352.938L27.5 327.312C24.3125 325.437 23.25 321.313 25.125 318.125C27 314.938 31.125 313.813 34.3125 315.75L70.75 341.438C73.9375 343.313 75 347.437 73.125 350.625C71.8125 352.687 69.5625 353.875 67.3125 353.875Z" fill="#6BA3AB"/>
  <path d="M10.9375 359.187C7.3125 359.187 4.3125 356.312 4.25 352.687C4.125 349 7.0625 345.875 10.75 345.812L64.5625 352.812C68.3125 352.625 71.375 355.625 71.4375 359.312C71.5625 363 68.625 366.125 64.9375 366.187L11.125 359.187H10.9375Z" fill="#6BA3AB"/>
  <path d="M17.6875 394.875C16.4136 394.337 15.3369 393.418 14.6043 392.245C13.8717 391.072 13.5189 389.702 13.5941 388.321C13.6693 386.94 14.1688 385.616 15.0245 384.529C15.8801 383.443 17.0502 382.647 18.375 382.25L66.25 368.063C67.9573 367.549 69.7989 367.734 71.3695 368.578C72.1472 368.996 72.8349 369.563 73.3935 370.246C73.9521 370.93 74.3706 371.717 74.625 372.563C74.8794 373.408 74.9649 374.295 74.8764 375.174C74.788 376.052 74.5274 376.904 74.1095 377.682C73.6917 378.46 73.1247 379.147 72.441 379.706C71.7574 380.265 70.9704 380.683 70.125 380.938L22.25 395.125C20.6875 395.563 19.0625 395.438 17.6875 394.875Z" fill="#6BA3AB"/>
  <path d="M542.875 610C542.875 610 506.5 602 478.188 610C449.875 618 437.625 638.312 442.75 650.125C447.5 661 481.438 649.187 516.375 649.187C551.313 649.187 611.75 647.75 622.125 641.187C632.5 634.562 624 596.312 624 596.312L542.875 610Z" fill="#FDD3B1"/>
  <path d="M250 597.75C250 597.75 242 601.5 233.5 608.625C224.5 616.125 213.687 626.562 220.75 635.562C227.812 644.562 242 639.312 242 639.312C242 639.312 235.875 636.437 250 639.312C264.188 642.125 272.062 618.625 272.062 618.625L250 597.75Z" fill="#FDD3B1"/>
  <path d="M290.75 631.687C290.75 631.687 282.75 635.438 274.25 642.563C265.25 650.063 254.438 660.5 261.5 669.5C268.562 678.5 282.75 673.25 282.75 673.25C282.75 673.25 276.625 670.375 290.75 673.25C304.938 676.062 312.812 652.562 312.812 652.562L290.75 631.687Z" fill="#FDD3B1"/>
  <path d="M668.438 510.375C668.438 510.375 698.188 513.188 734.063 538.688C768 562.813 807.5 607 791.188 672.75C774.688 739.313 700 791 586 726.5C503 687.813 433.625 713.125 386.562 716.625C310.562 722.313 210.5 716.625 223 687.813C239.5 672.75 284.563 706.75 347.813 687.813C400.125 672.188 532.5 663.75 591.5 682.188C650.5 700.625 661 731.5 727.875 682.188C774.125 609 697.688 579.75 674.063 568.375C650.5 557.125 668.438 510.375 668.438 510.375Z" fill="#FDD3B1"/>
  <path d="M336.562 213.437C336.562 213.437 337.75 198.187 328.562 181.312C321.187 167.75 309.688 150.625 278.5 147.812C208.813 141.5 191.5 219.125 190.688 239.375C189.75 263 196.812 291.75 196.812 291.75L301.125 280.437L336.562 213.437Z" fill="#6DA3AF"/>
  <path d="M265.75 485.875C265.75 485.875 263.438 543.625 262.438 560.5C260.563 592.625 238.375 594.938 237.438 609.625C236 631.625 271.437 620.5 271.437 620.5L338 536.438L265.75 485.875Z" fill="#6DA3AF"/>
  <path d="M282 648C282 648 291.438 659.438 299.5 666C306.125 671.438 336.625 621.563 352 620C369.937 618.125 366.812 627.938 382.812 612.813C393.25 603 403.125 586.375 403.125 586.375C403.125 586.375 431.937 594.875 451.75 595.813C471.562 596.75 500.875 594.375 500.875 594.375C500.875 594.375 547.625 650.063 617.5 634.5C687.375 618.937 687.875 554.25 687.875 554.25L620.813 422.125L481.562 363.125L355.437 492.938L282 648Z" fill="#6DA3AF"/>
  <path d="M376.688 343.25C376.688 343.25 404 326.875 420.125 300.625C433.813 278.375 438.438 248.437 422 220.5C404.625 191 373.313 185.375 349.313 192.125C304.188 204.812 297.375 252.125 297.375 252.125C297.375 252.125 283.688 240.812 253.438 241.25C223.25 241.75 185 254.5 151.938 274.312C118.875 294.125 112.25 305 89.125 316.312C66 327.625 53.25 328.125 52.3125 340.375C51.375 352.625 56.0625 370.125 74.5 388.562C92.9375 407 129.75 418.75 142.938 423C156.125 427.25 173.125 434.813 191.562 436.25C210 437.688 223.188 437.687 223.188 437.687C223.188 437.687 246.687 502 267 527C267 527 303.562 542.375 330 538.875C301 639 260 637.5 293.5 658C297.375 680.5 317 627.313 341.5 616C366 604.688 362 621 381.5 604.5C387.75 596.688 396.375 570.875 396.375 570.875C396.375 570.875 412.875 576.563 439.813 580.813C466.75 585.063 488 583.187 488 583.187C488 583.187 441.75 528.437 445.063 480.75C448.375 433.062 477.188 396.25 504.063 392.438C531 388.687 491.688 422.75 484.25 437.312C474.813 455.75 458.75 500.562 487.563 546.375C516.375 592.187 567.313 629.313 617.375 621C665.563 613 688.688 581.813 690.563 538.875C691.875 509.563 689.125 420.812 655.625 373.625C622.125 326.437 574.563 296.375 500.938 304.875C437.25 312.062 376.688 343.25 376.688 343.25Z" fill="#B5C2C8"/>
  <path d="M376.688 343.25C376.688 343.25 404 326.875 420.125 300.625C433.813 278.375 438.438 248.437 422 220.5C404.625 191 373.313 185.375 349.313 192.125C304.188 204.812 297.375 252.125 297.375 252.125C297.375 252.125 283.688 240.812 253.438 241.25C223.25 241.75 185 254.5 151.938 274.312C118.875 294.125 112.25 305 89.125 316.312C66 327.625 53.25 328.125 52.3125 340.375C51.375 352.625 56.0625 370.125 74.5 388.562C92.9375 407 129.75 418.75 142.938 423C156.125 427.25 173.125 434.813 191.562 436.25C210 437.688 223.188 437.687 223.188 437.687C223.188 437.687 246.687 502 267 527C267 527 303.562 542.375 330 538.875C301 639 260 637.5 293.5 658C297.375 680.5 317 627.313 341.5 616C366 604.688 362 621 381.5 604.5C387.75 596.688 396.375 570.875 396.375 570.875C396.375 570.875 412.875 576.563 439.813 580.813C466.75 585.063 488 583.187 488 583.187C488 583.187 441.75 528.437 445.063 480.75C448.375 433.062 477.188 396.25 504.063 392.438C531 388.687 491.688 422.75 484.25 437.312C474.813 455.75 458.75 500.562 487.563 546.375C516.375 592.187 567.313 629.313 617.375 621C665.563 613 688.688 581.813 690.563 538.875C691.875 509.563 689.125 420.812 655.625 373.625C622.125 326.437 574.563 296.375 500.938 304.875C437.25 312.062 376.688 343.25 376.688 343.25Z" fill="#B5C2C8"/>
  <path d="M376.688 343.25C376.688 343.25 404 326.875 420.125 300.625C433.813 278.375 438.438 248.437 422 220.5C404.625 191 373.313 185.375 349.313 192.125C304.188 204.812 297.375 252.125 297.375 252.125C297.375 252.125 283.688 240.812 253.438 241.25C223.25 241.75 185 254.5 151.938 274.312C118.875 294.125 112.25 305 89.125 316.312C66 327.625 53.25 328.125 52.3125 340.375C51.375 352.625 56.0625 370.125 74.5 388.562C92.9375 407 129.75 418.75 142.938 423C156.125 427.25 173.125 434.813 191.562 436.25C210 437.688 223.188 437.687 223.188 437.687C223.188 437.687 246.687 502 267 527C267 527 303.562 542.375 330 538.875C301 639 260 637.5 293.5 658C297.375 680.5 317 627.313 341.5 616C366 604.688 362 621 381.5 604.5C387.75 596.688 396.375 570.875 396.375 570.875C396.375 570.875 412.875 576.563 439.813 580.813C466.75 585.063 488 583.187 488 583.187C488 583.187 441.75 528.437 445.063 480.75C448.375 433.062 477.188 396.25 504.063 392.438C531 388.687 491.688 422.75 484.25 437.312C474.813 455.75 458.75 500.562 487.563 546.375C516.375 592.187 567.313 629.313 617.375 621C665.563 613 688.688 581.813 690.563 538.875C691.875 509.563 689.125 420.812 655.625 373.625C622.125 326.437 574.563 296.375 500.938 304.875C437.25 312.062 376.688 343.25 376.688 343.25Z" fill="#B5C2C8"/>
  <path d="M376.688 343.25C376.688 343.25 404 326.875 420.125 300.625C433.813 278.375 438.438 248.437 422 220.5C404.625 191 373.313 185.375 349.313 192.125C304.188 204.812 297.375 252.125 297.375 252.125C297.375 252.125 283.688 240.812 253.438 241.25C223.25 241.75 185 254.5 151.938 274.312C118.875 294.125 112.25 305 89.125 316.312C66 327.625 53.25 328.125 52.3125 340.375C51.375 352.625 56.0625 370.125 74.5 388.562C92.9375 407 129.75 418.75 142.938 423C156.125 427.25 173.125 434.813 191.562 436.25C210 437.688 223.188 437.687 223.188 437.687C223.188 437.687 246.687 502 267 527C267 527 303.562 542.375 330 538.875C301 639 260 637.5 293.5 658C297.375 680.5 317 627.313 341.5 616C366 604.688 362 621 381.5 604.5C387.75 596.688 396.375 570.875 396.375 570.875C396.375 570.875 412.875 576.563 439.813 580.813C466.75 585.063 488 583.187 488 583.187C488 583.187 441.75 528.437 445.063 480.75C448.375 433.062 477.188 396.25 504.063 392.438C531 388.687 491.688 422.75 484.25 437.312C474.813 455.75 458.75 500.562 487.563 546.375C516.375 592.187 567.313 629.313 617.375 621C665.563 613 688.688 581.813 690.563 538.875C691.875 509.563 689.125 420.812 655.625 373.625C622.125 326.437 574.563 296.375 500.938 304.875C437.25 312.062 376.688 343.25 376.688 343.25Z" fill="#B5C2C8"/>
  <path d="M388 232.312C365.563 213.25 332.625 232 324.75 262.188C316.875 292.375 327.5 317.938 368.188 301.563C402.5 287.688 406.938 248.375 388 232.312Z" fill="#FFD3B0"/>
  <path d="M59.75 371.125L85.5625 345.937C85.5625 345.937 80.5 336.188 67 331.75C53.5 327.313 50 336.813 50.9375 350.688C51.875 364.5 56.875 370.188 59.75 371.125Z" fill="#FFD3B0"/>
  <path d="M233.562 342.75C227.062 354 216.812 358.188 207.687 354.875C199.187 351.813 198.75 337.625 205.25 326.375C211.75 315.125 220.187 309.938 231.312 313.813C239.812 316.813 240 331.5 233.562 342.75Z" fill="#2D2B2E"/>
  <path d="M320.688 399.437C327.188 410.125 301.875 426.75 284.188 434.375C251.125 448.563 223.125 450.437 174 440.375C128.75 431.062 96.25 414.25 78 399.125C65.9375 389.125 59.125 379 60.6875 374.875C64.8125 364.187 77.875 383.437 86.1875 389.687C104.75 403.562 124.063 409 134.438 409.438C154.5 410.188 174.625 396 180.938 402.625C192.875 415.187 157 421.5 157 421.5C157 421.5 196.688 433.437 222.813 430.312C248.938 427.187 276.625 417.437 290.5 408.25C304.313 399.125 316.25 392.187 320.688 399.437Z" fill="#6BA3AB"/>
  <path d="M90.25 346.875C95.1875 353.188 82.0625 363.875 76.375 368.563C70.6875 373.313 63.8125 382.125 60.625 374.875C57.5 367.625 58.75 365.438 69.4375 355.688C80.1875 345.938 84.625 339.625 90.25 346.875Z" fill="#2D2B2E"/>
  <path d="M264.125 524.239C264.125 524.239 264.125 533.239 260.125 571.239C245.125 609.239 231.5 597.427 236.625 609.239C244.001 626.239 236.625 616.739 256.625 622.239C289.625 582.739 318.625 549.364 329 542.802C339.375 536.177 330.875 497.927 330.875 497.927L264.125 524.239Z" fill="#B5C2C8"/>
</svg>